<?xml version="1.0" encoding="UTF-8"?>
<svg version="1.1" xmlns="http://www.w3.org/2000/svg" width="90" height="42" viewBox="0 0 1804 884">
  <path
    d="M0 0 C595.32 0 1190.64 0 1804 0 C1804 291.72 1804 583.44 1804 884 C1208.68 884 613.36 884 0 884 C0 592.28 0 300.56 0 0 Z "
    fill="#151D2B" transform="translate(0,0)" />
  <path
    d="M0 0 C0.9009993 -0.00974854 1.8019986 -0.01949707 2.7303009 -0.02954102 C31.50625862 -0.27640324 59.4593722 1.09217243 87.26953125 9.23828125 C88.29433594 9.53831055 89.31914063 9.83833984 90.375 10.14746094 C118.86732085 18.68672751 146.90714641 31.22256643 169.26953125 51.23828125 C170.22859375 52.0890625 171.18765625 52.93984375 172.17578125 53.81640625 C175.25290906 56.5757601 178.27009587 59.39488586 181.26953125 62.23828125 C181.77129883 62.71136719 182.27306641 63.18445313 182.79003906 63.671875 C190.79055002 71.26592913 197.68078723 79.4027633 204.26953125 88.23828125 C204.90737549 89.07697754 204.90737549 89.07697754 205.55810547 89.93261719 C212.81853287 99.49594832 218.6730112 109.62977701 224.26953125 120.23828125 C224.62789062 120.90585449 224.98625 121.57342773 225.35546875 122.26123047 C242.23252812 153.80261445 250.57547668 189.1646531 256.26953125 224.23828125 C256.44078711 225.26957846 256.61204296 226.30087566 256.78848839 227.3634243 C260.45340707 250.06024631 260.82513186 272.40010478 260.70803857 295.34753633 C260.68631894 300.4211853 260.6873206 305.49483917 260.68534851 310.56852722 C260.67895906 319.06438933 260.65792826 327.5601044 260.6262207 336.0559082 C260.58576848 346.90792429 260.56849337 357.75984558 260.55891132 368.61192799 C260.55057046 378.03134729 260.53336963 387.45074726 260.51387382 396.87014937 C260.5098465 398.8718516 260.50610378 400.87355443 260.50265145 402.87525773 C260.49277561 408.57645784 260.47809417 414.27760355 260.45581245 419.9787693 C260.44977706 421.69182855 260.44527974 423.40489415 260.44256973 425.11796188 C260.42772597 433.70667972 260.2890403 442.27048506 259.83122253 450.84819031 C259.79404092 451.56076046 259.75685931 452.27333061 259.71855098 453.00749379 C259.33138972 459.57131688 258.48324358 466.06834515 257.4050293 472.55322266 C257.22005386 473.66905731 257.22005386 473.66905731 257.03134155 474.80743408 C256.90369415 475.56836365 256.77604675 476.32929321 256.64453125 477.11328125 C256.51325836 477.90820984 256.38198547 478.70313843 256.24673462 479.52215576 C251.11973975 510.36242903 243.10994499 541.08410628 229.26953125 569.23828125 C228.7600293 570.29184814 228.7600293 570.29184814 228.24023438 571.36669922 C222.2667711 583.60562468 215.16929633 596.71441086 205.26953125 606.23828125 C208.330517 616.68164441 216.64070486 623.75761152 224.19750977 631.20068359 C227.8044111 634.75467789 231.25224156 638.36383656 234.5390625 642.21875 C242.13379829 651.0821324 250.29067597 659.3573273 258.60693359 667.53881836 C259.31156738 668.23499268 260.01620117 668.93116699 260.7421875 669.6484375 C261.37390869 670.26855713 262.00562988 670.88867676 262.65649414 671.52758789 C266.20288255 675.28868122 267.18262016 678.17888097 267.1015625 683.2265625 C265.3722635 689.48613774 260.2259824 694.00134183 255.83398438 698.60009766 C253.7019597 700.83260165 251.64277269 703.12754302 249.58203125 705.42578125 C248.86402344 706.21597656 248.14601563 707.00617187 247.40625 707.8203125 C245.15983394 710.36241769 243.02332072 712.9720752 240.89453125 715.61328125 C237.21853608 720.16024392 233.35608979 724.46474257 229.37133789 728.73754883 C225.43965813 732.98066247 221.81679742 737.41082656 218.2421875 741.9609375 C215.21030436 745.46111151 213.57190184 747.012112 208.91796875 747.8203125 C203.87038472 747.01507693 202.09231999 744.72330825 198.89453125 740.92578125 C198.04556274 739.96345581 198.04556274 739.96345581 197.17944336 738.98168945 C195.51917489 737.08602563 193.88952697 735.16840079 192.26953125 733.23828125 C191.49480469 732.32046875 190.72007812 731.40265625 189.921875 730.45703125 C187.67738175 727.73846746 185.47441362 724.98906697 183.26953125 722.23828125 C173.26050758 709.95247273 163.18604893 697.71233402 152.51953125 685.98828125 C147.41791736 680.36628416 142.48445104 674.56066094 138.26953125 668.23828125 C130.20665474 670.17051785 122.88842826 672.98644487 115.33203125 676.36328125 C105.75312301 680.53272663 96.15286568 684.12987493 86.20703125 687.30078125 C84.46981812 687.85499756 84.46981812 687.85499756 82.69750977 688.42041016 C71.66122468 691.86052184 61.99769479 693.54919877 50.44140625 693.71679688 C43.49653246 693.91563754 37.51184268 695.11712553 31.26953125 698.23828125 C29.9322569 698.34730647 28.58988076 698.39722389 27.24829102 698.4152832 C25.99638725 698.43426414 25.99638725 698.43426414 24.7191925 698.45362854 C23.80896835 698.46119675 22.8987442 698.46876495 21.9609375 698.4765625 C21.01530441 698.48626572 20.06967133 698.49596893 19.09538269 698.50596619 C16.00755634 698.53107764 12.91994982 698.5435234 9.83203125 698.55078125 C8.78543335 698.55339966 7.73883545 698.55601807 6.66052246 698.55871582 C-9.8433257 698.56315455 -25.52744355 697.57481154 -41.73046875 694.23828125 C-43.32254858 693.94461198 -44.91497753 693.65282668 -46.5078125 693.36328125 C-83.44210607 686.28672702 -118.6717775 668.45130075 -146.04296875 642.73828125 C-148.16410026 640.76513566 -150.30627917 638.88806198 -152.54296875 637.05078125 C-156.36767628 633.80390723 -159.5028729 630.06591938 -162.73046875 626.23828125 C-163.95056641 624.84996094 -163.95056641 624.84996094 -165.1953125 623.43359375 C-177.31547525 609.56743713 -187.31483716 594.60892058 -195.73046875 578.23828125 C-196.14538574 577.43438965 -196.56030273 576.63049805 -196.98779297 575.80224609 C-211.39703294 547.55437427 -220.47314532 517.06034809 -226.10546875 485.92578125 C-226.22707367 485.25393799 -226.34867859 484.58209473 -226.47396851 483.88989258 C-231.77720613 454.21839436 -233.05546378 424.46619674 -232.99911976 394.38405848 C-232.99390113 390.69694442 -232.99879374 387.00983805 -233.00189209 383.32272339 C-233.00548812 377.13944672 -233.00085063 370.95621846 -232.99121094 364.77294922 C-232.98034473 357.72357832 -232.98385665 350.67432338 -232.99486375 343.6249553 C-233.00407528 337.46847739 -233.00515547 331.31203344 -232.99998641 325.15555084 C-232.99693998 321.52425559 -232.99624519 317.89301391 -233.00305939 314.26172256 C-233.0461558 287.68403506 -231.76711116 261.23562667 -228.91796875 234.80078125 C-228.83498535 234.01529907 -228.75200195 233.22981689 -228.66650391 232.42053223 C-227.27282611 219.37997013 -225.2249923 206.59441547 -222.30224609 193.80029297 C-221.78082644 191.46392326 -221.31499416 189.12626513 -220.875 186.7734375 C-214.08913642 151.53556205 -198.81491589 115.80233942 -175.73046875 88.23828125 C-174.84608494 87.15126065 -173.96197924 86.06401373 -173.078125 84.9765625 C-161.73703689 71.22134109 -149.04700642 57.91289267 -134.73046875 47.23828125 C-133.19132813 46.06652344 -133.19132813 46.06652344 -131.62109375 44.87109375 C-94.41935798 17.08020305 -46.54672033 0.42250588 0 0 Z "
    fill="#FCF8F5" transform="translate(1129.73046875,88.76171875)" />
  <path
    d="M0 0 C269.53654108 0 269.53654108 0 299 9 C300.20849609 9.36657715 301.41699219 9.7331543 302.66210938 10.11083984 C328.81276252 18.25097316 353.30937705 28.08873779 374.05859375 46.42578125 C376.62046041 48.66783985 379.23215881 50.74940241 381.9375 52.8125 C398.83060674 66.30504629 411.14203972 82.89601877 421 102 C421.31420898 102.60779297 421.62841797 103.21558594 421.95214844 103.84179688 C430.30677736 120.26573122 436.00200319 138.04870853 440 156 C440.22993652 156.9688916 440.45987305 157.9377832 440.69677734 158.93603516 C445.05465264 177.94604906 445.45920697 196.68773392 445.4375 216.125 C445.43763092 217.34544006 445.43776184 218.56588013 445.43789673 219.82330322 C445.40175405 238.61844162 445.15956351 257.71549449 440.9375 276.125 C440.72907471 277.05256104 440.52064941 277.98012207 440.3059082 278.93579102 C436.03332227 297.03699891 430.11403137 314.75739673 421 331 C420.34509255 332.21676972 419.69145337 333.43422288 419.0390625 334.65234375 C412.82229887 346.08182596 405.19313746 355.96385236 396.34375 365.46875 C394.29182614 367.68482777 392.32533694 369.94505634 390.375 372.25 C387.51990953 375.53102472 384.45272279 378.3715438 381.12890625 381.171875 C379.68415468 382.4125057 378.27548972 383.69617748 376.90234375 385.015625 C312.82434822 446.12602897 203.26334441 436 126 436 C126 516.52 126 597.04 126 680 C84.42 680 42.84 680 0 680 C0 455.6 0 231.2 0 0 Z "
    fill="#FDF9F5" transform="translate(402,98)" />
  <path
    d="M0 0 C0.69786621 0.17660156 1.39573242 0.35320312 2.11474609 0.53515625 C16.82441599 4.37153478 32.79770922 10.49319512 44 21 C44.57105469 21.49371094 45.14210938 21.98742187 45.73046875 22.49609375 C66.35638911 41.42285362 77.20735756 71.23431624 83.46191406 97.73535156 C83.98119954 99.9208743 84.53097611 102.09674445 85.0859375 104.2734375 C89.37749321 121.650362 91.0231602 139.65890089 91.7890625 157.51171875 C91.93149827 160.92188771 91.93149827 160.92188771 92.50410461 163.93815613 C93.3033271 169.42182679 93.14741397 174.9482994 93.14526367 180.4777832 C93.14862228 181.72095306 93.1519809 182.96412292 93.15544128 184.2449646 C93.16329043 187.63976013 93.16661751 191.03449447 93.16725707 194.42929482 C93.16797015 196.55494397 93.17010934 198.68058679 93.17275429 200.80623436 C93.18199303 208.23532897 93.18609104 215.66440569 93.18530273 223.09350586 C93.18470241 229.9968421 93.19524912 236.90010009 93.2110464 243.80341655 C93.22416155 249.7484668 93.22948496 255.69349159 93.22884732 261.63855618 C93.2285935 265.18119291 93.23138068 268.72376002 93.24202538 272.26638222 C93.25358852 276.22229641 93.24893527 280.17810491 93.24291992 284.1340332 C93.24853943 285.2933284 93.25415894 286.4526236 93.25994873 287.64704895 C93.23409399 294.35996974 92.50996412 300.46968006 91 307 C90.66271219 309.23953519 90.34994048 311.48300593 90.0703125 313.73046875 C89.91699463 314.93405029 89.76367676 316.13763184 89.60571289 317.37768555 C89.44707764 318.63492432 89.28844238 319.89216309 89.125 321.1875 C81.84286245 377.3142751 81.84286245 377.3142751 72 397 C67.1237924 396.85223613 64.97016178 394.36383534 61.8125 391.015625 C59.48152675 388.42342199 57.16951226 385.81785879 54.890625 383.1796875 C52.7420115 380.70256698 50.56340823 378.2545317 48.375 375.8125 C47.66085937 375.01457031 46.94671875 374.21664063 46.2109375 373.39453125 C43.10022864 370.02551265 39.83569644 366.82360437 36.5703125 363.60546875 C30.92878193 358.02702238 25.55191782 352.32977845 20.51953125 346.1953125 C17.88988431 343.0228162 15.20595111 340.23443344 12.0625 337.5625 C7.08386602 333.31934604 3.02040791 328.42668559 -1.15625 323.41015625 C-1.9090625 322.53230469 -2.661875 321.65445312 -3.4375 320.75 C-4.11683594 319.94046875 -4.79617188 319.1309375 -5.49609375 318.296875 C-8.67552731 315.38032752 -12.08488836 313.74379108 -16 312 C-16.43755615 312.57854736 -16.8751123 313.15709473 -17.32592773 313.75317383 C-34.96433999 337.05238287 -34.96433999 337.05238287 -43.94921875 347.40234375 C-44.45541748 347.98951172 -44.96161621 348.57667969 -45.4831543 349.18164062 C-46.468941 350.32276053 -47.46097937 351.45851999 -48.46020508 352.58789062 C-51.83142446 356.31494438 -51.83142446 356.31494438 -53 361 C-50.4759325 368.23883509 -45.59169735 373.85483877 -40.37524414 379.31762695 C-36.91459474 382.95058605 -33.75034889 386.71440912 -30.6875 390.6875 C-24.81336723 398.29307949 -18.70275949 405.69166595 -12.57470703 413.09326172 C-9.76133787 416.4998374 -6.97819839 419.93105612 -4.19140625 423.359375 C-2.64262476 425.22564289 -1.06395288 427.06729564 0.53515625 428.890625 C8.53944452 438.02487911 15.29752442 447.8828436 22 458 C18.33625363 462.03502469 14.605431 464.61318019 9.6875 467 C8.99108398 467.3417627 8.29466797 467.68352539 7.57714844 468.03564453 C0.27269445 471.51075409 -7.18367834 473.96346893 -15 476 C-16.39992188 476.36931641 -16.39992188 476.36931641 -17.828125 476.74609375 C-38.36662188 481.10001487 -60.95562687 478.47221162 -80 470 C-81.51013672 469.33677734 -81.51013672 469.33677734 -83.05078125 468.66015625 C-111.4704404 455.35341572 -127.57630378 430.36695249 -138.03881836 401.83154297 C-140.55332673 394.67588941 -142.44747036 387.41746324 -144 380 C-144.25112549 378.84467773 -144.25112549 378.84467773 -144.50732422 377.66601562 C-147.43024212 363.82263733 -148.63899361 349.88592419 -149.59838867 335.79711914 C-149.69677082 334.36475959 -149.69677082 334.36475959 -149.79714048 332.90346348 C-151.15738327 312.68852414 -151.4312058 292.53625387 -151.37004495 272.28251147 C-151.35835842 267.46805143 -151.36286471 262.65359683 -151.36479187 257.83912659 C-151.36566211 249.78830386 -151.35485506 241.73756739 -151.33618164 233.68676758 C-151.31491035 224.46483524 -151.31153805 215.24302762 -151.3177436 206.02107567 C-151.32348903 197.01035748 -151.31773902 187.99968184 -151.30657005 178.9889698 C-151.30200447 175.21260835 -151.3010141 171.4362736 -151.3031559 167.6599102 C-151.32168939 112.43883053 -148.96346402 68.5442206 -108.6875 27.25 C-93.37197499 11.94427128 -74.82685995 3.18528818 -54 -2 C-53.0203125 -2.2475 -52.040625 -2.495 -51.03125 -2.75 C-34.09745075 -6.25354467 -16.55959291 -4.27892796 0 0 Z "
    fill="#161D2A" transform="translate(1174,203)" />
  <path
    d="M0 0 C142.6735108 0 142.6735108 0 166.0625 23.03125 C167.04311962 24.01939356 168.02240455 25.00886445 169 26 C170.1446875 27.12921875 170.1446875 27.12921875 171.3125 28.28125 C192.04334597 49.98385437 195.44701119 81.16097636 195.3125 109.75 C195.30926727 110.99308929 195.30926727 110.99308929 195.30596924 112.2612915 C195.17743571 143.13237029 189.63029937 169.36970063 167 192 C163.84560561 194.72134181 160.60424571 196.91914145 157 199 C156.16855469 199.49628906 155.33710937 199.99257813 154.48046875 200.50390625 C127.29929716 215.39716622 96.3307045 216.18738275 66.16210938 216.18530273 C62.69387924 216.18745721 59.22598534 216.20558335 55.7578125 216.22460938 C37.02645697 216.24035883 18.79501664 215.10558921 0 214 C0 143.38 0 72.76 0 0 Z "
    fill="#151D2A" transform="translate(528,210)" />
  <path
    d="M0 0 C11.6711649 2.69334575 20.43331642 14.15390417 28.5390625 22.33325195 C30.62187096 24.43434349 32.71259696 26.52729529 34.8046875 28.61914062 C36.15411838 29.97348767 37.50309223 31.32829026 38.8515625 32.68359375 C39.46528717 33.29843124 40.07901184 33.91326874 40.71133423 34.54673767 C44.46133303 38.33721328 48.02867721 42.24511393 51.50987244 46.28405762 C56.16085248 51.63984995 61.37410618 56.40658355 66.7421875 61.02734375 C70.45183847 64.26847479 74.05830033 67.62199836 77.6796875 70.9609375 C79.48393865 72.62287734 81.30064059 74.2665509 83.13620567 75.89398098 C89.53459465 81.57829027 95.64357618 87.50628173 101.68212891 93.56860352 C102.70800622 94.59476374 103.73410544 95.62070217 104.76040649 96.6464386 C107.51403486 99.39978303 110.26459471 102.15617367 113.01456499 104.91317105 C115.90083044 107.80573789 118.78997627 110.69542499 121.67880249 113.58543396 C127.13454237 119.04426731 132.58773073 124.50564203 138.03998029 129.96796125 C144.25333339 136.19253747 150.4695663 142.4142344 156.68602872 148.63570511 C169.46053291 161.42062872 182.2314618 174.20911819 195 187 C193.19981491 190.86114706 190.71952446 193.68031075 187.8125 196.75 C186.80642857 197.82601657 185.80121856 198.90283922 184.796875 199.98046875 C184.31154297 200.50044434 183.82621094 201.02041992 183.32617188 201.55615234 C181.68223554 203.34596079 180.1215424 205.19859535 178.5625 207.0625 C175.14835149 211.01962153 171.28123839 214.44639666 167.40478516 217.93603516 C163.9517654 221.06638327 160.82058666 224.29320084 157.82421875 227.85546875 C155.53297295 230.5490318 153.14549004 233.14957982 150.75 235.75 C149.91984375 236.65234375 149.0896875 237.5546875 148.234375 238.484375 C147.74943227 239.00970699 147.26448954 239.53503899 146.76485157 240.07629013 C145.41720445 241.54524203 144.07747359 243.02146041 142.74133587 244.50088882 C135.64670685 252.32204168 128.29507005 259.84189091 120.81762695 267.29589844 C119.53501736 268.57822516 118.25262951 269.86077369 116.97044373 271.14352417 C113.52715808 274.58709389 110.08082276 278.0275961 106.63388467 281.46750927 C103.01796154 285.07713338 99.40491593 288.68963553 95.79154968 292.30181885 C88.96572674 299.12454763 82.13736129 305.94472578 75.3080532 312.76396585 C67.52602463 320.53477344 59.74687353 328.30845891 51.96794951 336.0823741 C35.98180755 352.05809509 19.99209869 368.030242 4 384 C0.62254494 382.39627183 -1.70941696 380.57626729 -4.4375 378 C-7.33857414 375.31477959 -10.24982331 372.76364899 -13.4375 370.4296875 C-14.01830322 370.00300781 -14.59910645 369.57632812 -15.19750977 369.13671875 C-16.32911765 368.31615617 -17.46991107 367.50806492 -18.62084961 366.71484375 C-22.94515967 363.56748253 -24.09871257 360.79848733 -26 356 C-28.81741383 354.21021343 -28.81741383 354.21021343 -30.90625 353.21875 C-35.4779709 350.55759903 -39.16688085 346.60690229 -43 343 C-43.66257812 342.42507813 -44.32515625 341.85015625 -45.0078125 341.2578125 C-46.6875 339.75 -46.6875 339.75 -49 337 C-48.40465676 328.55695038 -39.76525292 322.72689795 -33.85551071 317.52465534 C-24.7634438 309.48604593 -16.01265062 301.15791677 -7.44824219 292.56176758 C-6.3531053 291.46634763 -5.25774622 290.37114979 -4.16218567 289.27615356 C-1.22892996 286.34318121 1.70126307 283.40716722 4.63085651 280.47053742 C7.70795718 277.38712526 10.78794795 274.30660255 13.86761475 271.22575378 C19.6809906 265.40928737 25.49181581 259.59027986 31.30169654 253.7703225 C37.92378985 247.13699686 44.54877102 240.5065586 51.17397928 233.87634432 C64.78583642 220.25407439 78.39411815 206.6282379 92 193 C90.11499101 188.92175535 87.38360755 185.97598505 84.3125 182.75 C83.28661603 181.66253678 82.26188942 180.57398066 81.23828125 179.484375 C80.7355368 178.94942917 80.23279236 178.41448334 79.71481323 177.86332703 C78.07448725 176.08093832 76.49789191 174.25856301 74.92431641 172.41723633 C70.49120713 167.34052966 65.74208883 162.59856371 60.97265625 157.83984375 C60.01518975 156.8817014 59.05787155 155.92341084 58.10069275 154.96498108 C56.10626253 152.96908713 54.11006259 150.97498548 52.11254883 148.98217773 C49.57325601 146.44858137 47.03848097 143.91052017 44.50502872 141.37108517 C42.53267816 139.39509297 40.55791737 137.42152321 38.58245659 135.44864082 C37.19873372 134.06589401 35.81699686 132.6811607 34.43531799 131.29637146 C29.98070103 126.85812551 25.47526663 122.54692845 20.69798279 118.45643616 C17.08196124 115.35481195 13.62365613 112.07620403 10.125 108.84375 C7.9597606 106.8523064 5.74742474 104.93065094 3.50976562 103.02124023 C-1.99957676 98.20449236 -7.12313721 93.0014566 -12.28125 87.81640625 C-13.34576772 86.75001915 -14.41050962 85.68385581 -15.47546387 84.61790466 C-18.25263833 81.83694593 -21.02679425 79.05299556 -23.80029297 76.26837158 C-26.64105638 73.4173052 -29.48471872 70.56913331 -32.328125 67.72070312 C-37.8882283 62.14993482 -43.44514018 56.57599681 -49 51 C-47.12022134 47.01156743 -44.56536833 43.87218185 -41.6875 40.5625 C-40.85436279 39.6041626 -40.85436279 39.6041626 -40.00439453 38.62646484 C-34.66718849 32.59093277 -29.05428645 26.83766725 -23.375 21.125 C-22.51737061 20.25818604 -21.65974121 19.39137207 -20.77612305 18.49829102 C-15.51097905 13.25820243 -10.04569244 8.4388491 -4.23681641 3.80810547 C-1.97235567 2.04262042 -1.97235567 2.04262042 0 0 Z "
    fill="#FCF8F5" transform="translate(1517,270)" />
  <path
    d="M0 0 C20.60795907 9.4069272 37.28782486 31.16295735 53 47 C51.78461188 51.4730585 50.61613791 53.81345018 47.02807617 56.73242188 C41.98576058 61.06246458 37.24710241 65.62210148 32.5402832 70.31445312 C31.75490771 71.09616127 30.96953222 71.87786942 30.16035748 72.68326569 C27.62152534 75.21362677 25.0859204 77.7471893 22.55078125 80.28125 C20.76587458 82.0629379 18.98089509 83.84455286 17.19584656 85.62609863 C13.46985486 89.34612859 9.74588606 93.06817314 6.02319336 96.79150391 C1.74015728 101.07514164 -2.54843923 105.35315615 -6.83964986 109.62860346 C-10.99702123 113.77125559 -15.14878239 117.91949331 -19.29850197 122.06980896 C-21.05225881 123.82239095 -22.80762542 125.57336372 -24.56467247 127.32264709 C-27.02407695 129.77219313 -29.47699252 132.22806775 -31.9284668 134.68554688 C-32.64499924 135.39645981 -33.36153168 136.10737274 -34.09977722 136.83982849 C-38.22289474 140.98850227 -41.91358174 145.28377902 -45.41682148 149.96955109 C-49.54467658 155.26358382 -54.63902652 159.61075739 -59.6953125 163.98828125 C-67.27703426 170.60622482 -74.51942658 177.27920903 -81 185 C-85.30769231 189.92307692 -85.30769231 189.92307692 -88.8125 190.3125 C-89.8953125 190.1578125 -89.8953125 190.1578125 -91 190 C-90.81992388 191.93241825 -90.81992388 191.93241825 -90 194 C-88.1436884 195.34130265 -88.1436884 195.34130265 -85.77151489 196.44436646 C-78.27135503 200.71161924 -72.67247233 206.79998009 -66.65576172 212.89013672 C-65.34481867 214.20220985 -64.03299064 215.51339927 -62.72035217 216.82377625 C-59.1810554 220.36193126 -55.6541778 223.91223104 -52.12949133 227.46493292 C-48.43583159 231.18369625 -44.73074603 234.89104092 -41.02688599 238.59963989 C-34.02450409 245.61442528 -27.03237631 252.63933914 -20.04392445 259.66799939 C-12.0832281 267.67349527 -4.11109179 275.66755737 3.86199975 283.66070533 C20.25404459 300.09449497 36.63175572 316.54250699 53 333 C51.26383071 336.69247839 49.10549826 339.2559743 46.3125 342.25 C45.48363281 343.14203125 44.65476562 344.0340625 43.80078125 344.953125 C43.35330536 345.43465027 42.90582947 345.91617554 42.4447937 346.41229248 C40.85604786 348.15819137 39.31803986 349.94260832 37.77783203 351.73144531 C34.25435651 355.76424296 30.55523203 359.57406464 26.75390625 363.34375 C25.76994118 364.32559265 25.76994118 364.32559265 24.76609802 365.32727051 C22.70059855 367.38723823 20.63162405 369.44367366 18.5625 371.5 C17.14885566 372.9086205 15.73544214 374.31747267 14.32226562 375.7265625 C10.88416851 379.15372133 7.44295344 382.57772019 4 386 C0.20120043 384.73373348 -1.22557581 382.89882829 -4 380 C-5.11832286 378.8782375 -6.23970868 377.75952351 -7.36349487 376.64323425 C-7.98289948 376.02527481 -8.60230408 375.40731537 -9.24047852 374.77062988 C-9.90345947 374.10921997 -10.56644043 373.44781006 -11.24951172 372.76635742 C-18.49959556 365.53264722 -25.74710409 358.29636227 -32.99317741 351.05863476 C-37.37091707 346.68611595 -41.74958749 342.31453764 -46.13037109 337.94506836 C-50.3788188 333.70751949 -54.62478865 329.46750213 -58.8690834 325.22579384 C-60.48123982 323.61547688 -62.09427221 322.00603637 -63.70821762 320.39751244 C-65.97173708 318.14129812 -68.23206066 315.88192638 -70.49169922 313.62182617 C-71.15063171 312.96648895 -71.80956421 312.31115173 -72.48846436 311.63595581 C-76.30009411 307.81594311 -79.92632992 303.88465237 -83.44737434 299.79485035 C-85.81811039 297.05425644 -88.28206115 294.40285525 -90.75 291.75 C-93.65768691 288.61947596 -96.56208226 285.48972973 -99.41015625 282.3046875 C-105.93223985 275.0296479 -112.78917456 268.10228078 -119.6875 261.1875 C-120.18504791 260.68736389 -120.68259583 260.18722778 -121.19522095 259.67193604 C-127.85125108 252.96911258 -127.85125108 252.96911258 -134.859375 246.640625 C-140.44333341 241.85508908 -145.56699137 236.58171811 -150.75463867 231.37573242 C-152.55862085 229.56639067 -154.36788665 227.76245681 -156.17773438 225.95898438 C-161.99982887 220.14024576 -167.67328984 214.28154269 -173 208 C-174.49623392 206.35074216 -175.99565812 204.70436567 -177.5 203.0625 C-181.57784288 198.55099287 -185.34852419 193.86080703 -189 189 C-187.65551143 186.00758318 -186.1684584 183.91897879 -183.85214233 181.60490417 C-182.88090424 180.62737434 -182.88090424 180.62737434 -181.89004517 179.63009644 C-181.18044647 178.92611725 -180.47084778 178.22213806 -179.73974609 177.49682617 C-178.61741577 176.37164833 -178.61741577 176.37164833 -177.47241211 175.22373962 C-174.99428212 172.74190142 -172.50901594 170.26734553 -170.0234375 167.79296875 C-168.29631699 166.06704073 -166.5695664 164.34074246 -164.84317017 162.61408997 C-161.21965843 158.99214348 -157.59280928 155.37358378 -153.96337891 151.75756836 C-149.32486802 147.13599004 -144.69290904 142.50791438 -140.06323814 137.87748241 C-136.49463241 134.30914958 -132.92341841 130.74343679 -129.35133743 127.17858315 C-127.64361992 125.47403579 -125.9364968 123.7688927 -124.22999191 122.06313133 C-121.83469754 119.67002138 -119.43612799 117.28024266 -117.03662109 114.89135742 C-116.33916779 114.19345093 -115.64171448 113.49554443 -114.92312622 112.77648926 C-111.00056097 108.87910372 -106.9790661 105.15269137 -102.78713417 101.54602528 C-100.00467682 99.13895956 -97.3168431 96.6323767 -94.625 94.125 C-93.59702001 93.1685547 -92.56835133 92.21284915 -91.5390625 91.2578125 C-91.00749039 90.76447922 -90.47591827 90.27114594 -89.92823792 89.76286316 C-88.66239683 88.60558656 -87.38393648 87.46193418 -86.09214783 86.33369446 C-77.07422303 78.41233231 -68.69232564 69.83695623 -60.21484375 61.34765625 C-58.50531863 59.63880565 -56.79564516 57.93010345 -55.08583069 56.22154236 C-51.52312392 52.66030237 -47.96221364 49.09727852 -44.40258789 45.53295898 C-39.83273794 40.95737753 -35.25836624 36.38634697 -30.68266964 31.8166132 C-27.16112436 28.29867156 -23.64195194 24.77836404 -20.12350655 21.25732231 C-18.43647278 19.56962053 -16.74869327 17.88266386 -15.0601635 16.19645882 C-12.71208451 13.85090683 -10.36721325 11.50219536 -8.02319336 9.15258789 C-6.97214165 8.10457253 -6.97214165 8.10457253 -5.89985657 7.03538513 C-5.26504364 6.39775238 -4.63023071 5.76011963 -3.97618103 5.10316467 C-3.42226653 4.54887315 -2.86835203 3.99458162 -2.29765224 3.42349339 C-0.89250224 2.01172491 -0.89250224 2.01172491 0 0 Z "
    fill="#FCF8F4" transform="translate(253,268)" />
  <path
    d="M0 0 C-1.40795547 3.19136745 -3.07879345 5.32296071 -5.54768372 7.7747345 C-6.2836528 8.51056259 -7.01962189 9.24639069 -7.77789307 10.0045166 C-8.58571228 10.80200317 -9.39353149 11.59948975 -10.22583008 12.42114258 C-11.07640488 13.26879684 -11.92697968 14.11645111 -12.80332947 14.98979187 C-15.13475616 17.31161654 -17.47049691 19.62900021 -19.80789018 21.94481492 C-22.25742097 24.37436131 -24.70047289 26.81040206 -27.14396667 29.24601746 C-33.88838467 35.96636048 -40.64273977 42.67668733 -47.3972702 49.38686371 C-53.58098275 55.53015146 -59.76253853 61.67556862 -65.93599814 67.82916182 C-68.36600299 70.25086429 -70.79811168 72.67037333 -73.23523903 75.08490944 C-75.95665831 77.78234505 -78.67190684 80.48585615 -81.38598633 83.19067383 C-82.18773285 83.98208771 -82.98947937 84.77350159 -83.81552124 85.58889771 C-88.04360721 89.8161829 -91.68708296 94.01883465 -95 99 C-96.32 98.67 -97.64 98.34 -99 98 C-98.35268357 96.80184219 -97.68047606 95.61714106 -97 94.4375 C-96.62875 93.77621094 -96.2575 93.11492187 -95.875 92.43359375 C-94.15959409 90.20713983 -92.54381089 88.67830045 -90.41279602 86.87376404 C-85.90736802 82.97340944 -81.70893924 78.82171898 -77.52026367 74.58618164 C-76.31142014 73.37032883 -76.31142014 73.37032883 -75.07815552 72.12991333 C-73.34256376 70.38388233 -71.60807588 68.63675348 -69.87459373 66.88862801 C-67.13323952 64.1251467 -64.38784369 61.36574188 -61.64118958 58.60752869 C-53.83721734 50.77027891 -46.03766419 42.92866584 -38.24829102 35.0769043 C-33.47362865 30.2640937 -28.69116141 25.45914388 -23.90423012 20.65853691 C-22.08133667 18.82756961 -20.26122836 16.99382519 -18.44392967 15.15730476 C-15.91365098 12.60070451 -13.37437044 10.05338817 -10.83276367 7.50805664 C-10.08000656 6.74294266 -9.32724945 5.97782867 -8.55168152 5.18952942 C-7.86074402 4.50127075 -7.16980652 3.81301208 -6.45793152 3.10389709 C-5.8590169 2.50091828 -5.26010229 1.89793947 -4.64303875 1.27668858 C-3 0 -3 0 0 0 Z "
    fill="#05070D" transform="translate(305,323)" />
  <path
    d="M0 0 C0.83595703 0.00451172 1.67191406 0.00902344 2.53320312 0.01367188 C4.58466649 0.02539452 6.63609273 0.04332797 8.6875 0.0625 C7.54247009 2.89533374 7.01293697 4.18736441 4.6875 6.0625 C0.42944845 6.85097047 -3.75041789 6.62456474 -8.0625 6.4375 C-9.82400391 6.39689453 -9.82400391 6.39689453 -11.62109375 6.35546875 C-14.5200816 6.28476173 -17.4153647 6.18611956 -20.3125 6.0625 C-20.3125 5.4025 -20.3125 4.7425 -20.3125 4.0625 C-13.33377595 0.32969411 -7.75162755 -0.07953525 0 0 Z "
    fill="#272A30" transform="translate(1181.3125,781.9375)" />
</svg>